<svg width="20" height="20" viewBox="0 0 20 20" fill="none" xmlns="http://www.w3.org/2000/svg">
<path d="M9.18831 3.91394C9.18831 3.04485 9.89284 2.34032 10.7619 2.34032C11.631 2.34032 12.3355 3.04485 12.3355 3.91394V4.70074C12.3355 5.13528 12.6878 5.48755 13.1223 5.48755H15.4828C15.9173 5.48755 16.2696 5.83981 16.2696 6.27436V8.63477C16.2696 9.06931 15.9173 9.42158 15.4828 9.42158H14.696C13.8269 9.42158 13.1223 10.1261 13.1223 10.9952C13.1223 11.8643 13.8269 12.5688 14.696 12.5688H15.4828C15.9173 12.5688 16.2696 12.9211 16.2696 13.3556V15.716C16.2696 16.1506 15.9173 16.5028 15.4828 16.5028H13.1223C12.6878 16.5028 12.3355 16.1506 12.3355 15.716V14.9292C12.3355 14.0601 11.631 13.3556 10.7619 13.3556C9.89284 13.3556 9.18831 14.0601 9.18831 14.9292V15.716C9.18831 16.1506 8.83605 16.5028 8.4015 16.5028H6.04109C5.60655 16.5028 5.25428 16.1506 5.25428 15.716V13.3556C5.25428 12.9211 4.90202 12.5688 4.46747 12.5688H3.68067C2.81159 12.5688 2.10706 11.8643 2.10706 10.9952C2.10706 10.1261 2.81159 9.42158 3.68067 9.42158H4.46747C4.90202 9.42158 5.25428 9.06931 5.25428 8.63477V6.27436C5.25428 5.83981 5.60655 5.48755 6.04109 5.48755H8.4015C8.83605 5.48755 9.18831 5.13528 9.18831 4.70074V3.91394Z" stroke="url(#paint0_linear_1_5498)" stroke-width="1.57361" stroke-linecap="round" stroke-linejoin="round"/>
<defs>
<linearGradient id="paint0_linear_1_5498" x1="9.18831" y1="2.34032" x2="9.18831" y2="16.5028" gradientUnits="userSpaceOnUse">
<stop stop-color="#2704FF"/>
<stop offset="0.328125" stop-color="#CE00FF"/>
<stop offset="0.541667" stop-color="#CE00FF"/>
<stop offset="0.770833" stop-color="#FF0071"/>
<stop offset="1" stop-color="#FF0071"/>
</linearGradient>
</defs>
</svg>
